<?xml version="1.0" encoding="iso-8859-1"?>
<!-- Generator: Adobe Illustrator 19.0.0, SVG Export Plug-In . SVG Version: 6.00 Build 0)  -->
<svg version="1.1" id="Layer_1" xmlns="http://www.w3.org/2000/svg" xmlns:xlink="http://www.w3.org/1999/xlink" x="0px" y="0px"
	 viewBox="0 0 512 512" style="enable-background:new 0 0 512 512;" xml:space="preserve">
<rect y="270.806" style="fill:#FFD248;" width="512" height="224.214"/>
<rect y="270.806" style="fill:#FFD146;" width="512" height="62.255"/>
<rect y="333.061" style="fill:#FDC247;" width="512" height="62.694"/>
<path style="fill:#FFD248;" d="M104.49,24.816c26.018,0,47.02,21.002,47.02,47.02s-21.002,47.02-47.02,47.02
	s-47.02-21.002-47.02-47.02S78.472,24.816,104.49,24.816z"/>
<rect x="313.469" y="176.327" style="fill:#B3B3B3;" width="94.041" height="94.041"/>
<polygon style="fill:#E6E6E6;" points="459.755,92.735 459.755,270.367 407.51,270.367 407.51,176.327 313.469,176.327 
	313.469,270.367 261.224,270.367 261.224,92.735 "/>
<path style="fill:#F57E21;" d="M480.653,30.041c5.747,0,10.449,4.702,10.449,10.449v52.245h-31.347H261.224h-31.347V40.49
	c0-5.747,4.702-10.449,10.449-10.449H480.653z"/>
<path d="M467.592,263.184V100.571h31.347V40.49c0-10.082-8.203-18.286-18.286-18.286H240.327c-10.082,0-18.286,8.203-18.286,18.286
	v60.082h31.347v162.612h-47.02v-37.224h23.51v-15.673H20.898v15.673h23.51v37.224H0v15.673h512v-15.673H467.592z M352.653,184.163
	v49.633h15.673v-49.633h31.347v78.367h-78.367v-78.367H352.653z M237.714,40.49c0-1.416,1.196-2.612,2.612-2.612h39.184v28.735
	h15.673V37.878h57.469v28.735h15.673V37.878h57.469v28.735h15.673V37.878h39.184c1.416,0,2.612,1.196,2.612,2.612v44.408H237.714
	V40.49z M451.918,100.571v161.959h-36.571v-78.367h13.061V168.49H292.571v15.673h13.061v78.367h-36.571V100.571H451.918z
	 M190.694,263.184h-57.469v-37.224h57.469V263.184z M60.082,225.959h57.469v37.224H60.082V225.959z"/>
<rect x="308.245" y="126.694" width="57.469" height="15.673"/>
<rect x="381.388" y="126.694" width="20.898" height="15.673"/>
<path d="M104.49,126.694c30.249,0,54.857-24.608,54.857-54.857S134.739,16.98,104.49,16.98S49.633,41.588,49.633,71.837
	S74.241,126.694,104.49,126.694z M104.49,32.653c21.606,0,39.184,17.577,39.184,39.184s-17.577,39.184-39.184,39.184
	S65.306,93.443,65.306,71.837S82.883,32.653,104.49,32.653z"/>
<rect y="325.224" width="512" height="15.673"/>
<rect y="387.918" width="512" height="15.673"/>
<rect x="31.347" y="434.939" width="26.122" height="15.673"/>
<rect x="104.49" y="455.837" width="26.122" height="15.673"/>
<rect x="188.082" y="424.49" width="26.122" height="15.673"/>
<rect x="261.224" y="455.837" width="26.122" height="15.673"/>
<rect x="334.367" y="424.49" width="26.122" height="15.673"/>
<rect x="397.061" y="455.837" width="26.122" height="15.673"/>
<rect x="459.755" y="424.49" width="26.122" height="15.673"/>
<g>
</g>
<g>
</g>
<g>
</g>
<g>
</g>
<g>
</g>
<g>
</g>
<g>
</g>
<g>
</g>
<g>
</g>
<g>
</g>
<g>
</g>
<g>
</g>
<g>
</g>
<g>
</g>
<g>
</g>
</svg>
